<?xml version="1.0" encoding="UTF-8" standalone="no"?>
<!DOCTYPE svg PUBLIC "-//W3C//DTD SVG 1.1//EN" "http://www.w3.org/Graphics/SVG/1.1/DTD/svg11.dtd">
<svg width="100%" height="100%" viewBox="0 0 2694 357" version="1.1" xmlns="http://www.w3.org/2000/svg" xmlns:xlink="http://www.w3.org/1999/xlink" xml:space="preserve" xmlns:serif="http://www.serif.com/" style="fill-rule:evenodd;clip-rule:evenodd;stroke-linejoin:round;stroke-miterlimit:2;">
    <g transform="matrix(1,0,0,1,-113.947,-572.69)">
        <g transform="matrix(1,0,0,1,355.662,-591.478)">
            <g transform="matrix(5.66812,0,0,5.66812,-55082.2,-4051.96)">
                <g>
                    <g>
                        <g transform="matrix(1,0,0,1,7319.41,-277.093)">
                            <path d="M2516.54,1260.28C2524.89,1260.28 2532.89,1256.96 2538.79,1251.06C2544.69,1245.16 2548,1237.16 2548,1228.82L2548,1228.81C2548,1220.47 2544.69,1212.47 2538.79,1206.57C2532.89,1200.67 2524.89,1197.35 2516.54,1197.35L2491.9,1197.35L2491.9,1260.28L2516.54,1260.28ZM2574.47,1260.28L2574.47,1197.35L2558.35,1197.35L2558.35,1260.28L2574.47,1260.28ZM2481.55,1212.33L2481.55,1197.35L2432.3,1197.35L2432.3,1260.28L2481.55,1260.28L2481.55,1243.92L2449.5,1243.92L2449.5,1235.86L2478.72,1235.86L2478.72,1220.4L2449.5,1220.4L2449.5,1212.33L2481.55,1212.33ZM2421.95,1260.28L2403.94,1260.28L2403.94,1226.15L2388.4,1248.98L2373.83,1226.15L2373.83,1260.28L2355.83,1260.28L2355.83,1197.35L2374.07,1197.35L2388.4,1219.81L2403.69,1197.35L2421.95,1197.35L2421.95,1260.28ZM2530.73,1228.35C2530.73,1224.25 2529.1,1220.32 2526.2,1217.42C2523.3,1214.52 2519.37,1212.89 2515.27,1212.89L2507.78,1212.89L2507.78,1244.21L2515.27,1244.21C2519.37,1244.21 2523.3,1242.58 2526.2,1239.68C2529.1,1236.78 2530.73,1232.85 2530.73,1228.75L2530.73,1228.35Z" style="fill:rgb(255,62,90);"/>
                        </g>
                        <g transform="matrix(1,0,0,1,7319.41,-277.093)">
                            <path d="M2603.97,1248.29L2628.81,1248.29L2623.42,1234.82L2609.42,1234.82L2616.82,1216.55L2609.04,1197.35L2607.74,1197.35L2582.25,1260.28L2599.11,1260.28L2603.97,1248.29Z" style="fill:rgb(255,62,90);"/>
                        </g>
                        <g transform="matrix(1,0,0,1,7319.41,-277.093)">
                            <path d="M2750.5,1197.35L2775.99,1260.28L2759.13,1260.28L2754.34,1248.45L2729.61,1248.45L2724.82,1260.28L2707.96,1260.28L2733.45,1197.35L2750.5,1197.35ZM2748.41,1233.82L2741.97,1217.92L2735.54,1233.82L2748.41,1233.82Z" style="fill:rgb(139,247,209);"/>
                        </g>
                        <g transform="matrix(1,0,0,1,7319.41,-277.093)">
                            <path d="M2789.52,1234.33L2766.51,1197.35L2787.43,1197.35L2798.75,1218.48L2810.08,1197.35L2830.99,1197.35L2807.99,1234.33L2807.99,1260.28L2789.52,1260.28L2789.52,1234.33Z" style="fill:rgb(139,247,209);"/>
                        </g>
                        <g transform="matrix(1,0,0,1,7320.83,130.498)">
                            <path d="M2673.93,789.76L2685.52,827.614L2698.82,789.76L2717.26,789.76L2693.59,852.687L2693.59,852.685L2693.59,852.687L2679.79,852.687L2667.5,814.889L2655.22,852.687L2641.42,852.687L2641.42,852.685L2641.41,852.687L2617.74,789.76L2636.18,789.76L2649.48,827.614L2661.07,789.76L2673.93,789.76Z" style="fill:rgb(139,247,209);"/>
                        </g>
                    </g>
                </g>
            </g>
        </g>
    </g>
</svg>
